<?xml version="1.0" encoding="utf-8"?>
<!-- Generator: Adobe Illustrator 26.0.1, SVG Export Plug-In . SVG Version: 6.00 Build 0)  -->
<svg version="1.1" id="레이어_1" xmlns="http://www.w3.org/2000/svg" xmlns:xlink="http://www.w3.org/1999/xlink" x="0px"
	 y="0px" viewBox="0 0 96 96" style="enable-background:new 0 0 96 96;" xml:space="preserve">
<g>
	<path d="M33.3351669,71.8299026V20.4368992l19.5668945-3.0127563c0.6582031-0.1650391,1.3535156-0.0249023,1.8603516,0.3710938
		c0.2294922,0.1796875,0.6152344,0.5727539,0.6152344,1.1831055v34.4833984c0,0.0252075,0.0125122,0.0463257,0.0143433,0.071106
		h0.9854736h0.9858398c0.0018311-0.0247803,0.0143433-0.0458984,0.0143433-0.071106V18.9783421
		c0-1.0654297-0.5039062-2.0708008-1.3837891-2.7583008c-0.9863281-0.7719717-2.3222656-1.0488272-3.4853516-0.7548819
		l-19.1733398,2.949523V15.3343c0-0.8032227,0.6391602-1.512207,1.5195312-1.6845703l25.284668-4.9541016
		c0.6279297-0.1650391,1.3027344-0.0302734,1.7998047,0.3549805c0.4296875,0.3325195,0.6660156,0.7949219,0.6660156,1.3012695
		v43.1098633c0,0.0252075,0.0125122,0.0463257,0.0143433,0.071106h1.9713135
		c0.0018311-0.0247803,0.0143433-0.0458984,0.0143433-0.071106V10.3518782c0-1.1225586-0.5253906-2.1728516-1.4404297-2.8823242
		C62.1823349,6.7093,60.8659286,6.4422102,59.6969833,6.7459211l-25.2270508,4.940918
		c-1.8164062,0.3564453-3.1347656,1.890625-3.1347656,3.6474609v3.3880606l-4.0859375,0.62854
		c-1.8203125,0.3432617-3.1416016,1.8349609-3.1416016,3.5473633v54.3515625c0,1.6826172,1.2402344,3.1308594,2.9838867,3.5136719
		l17.3417969,4.4160156c0.0823975,0.0214233,0.1652832,0.031189,0.2467041,0.031189v-2.0314331l-17.1270752-4.361084
		c-0.8510742-0.1875-1.4453125-0.8320312-1.4453125-1.5683594V22.8982639c0-0.7514648,0.6357422-1.4169922,1.4785156-1.5761719
		l3.7490234-0.5772705v51.085083c0,1.7255859,1.2368164,3.2138672,3.0078125,3.6191406l10.1137695,2.3144531
		c0.0748901,0.0175171,0.1498413,0.0252686,0.2232666,0.0252686v-2.0255127l-9.8907471-2.2634277
		C33.9333115,73.3035355,33.3351669,72.617012,33.3351669,71.8299026z"/>
	<path d="M70.5778427,72.4353714c-1.7958984-3.4648438-8.8925781-14.0224571-9.1494141-14.3974571
		c-0.2597656-0.46875-0.7558594-0.7607422-1.2939453-0.7607422s-1.0341797,0.2919922-1.25,0.6884766
		c-0.3017578,0.4501953-7.40625,11.0468712-9.1933594,14.4941368c-2.2084961,4.2529297-1.5239258,9.5029297,1.703125,13.0634766
		c2.2626953,2.4951172,5.4980469,3.8535156,8.7861328,3.8535156c1.3935547,0,2.7978516-0.2441406,4.140625-0.75
		c4.515625-1.6992188,7.5585938-6.0517578,7.5712891-10.8291016C71.8991318,75.9373245,71.4430771,74.0818558,70.5778427,72.4353714
		z M69.8922958,77.7908401c-0.0107422,3.953125-2.5322266,7.5556641-6.2763672,8.9648438
		c-3.75,1.4091797-8.0644531,0.3740234-10.7392578-2.5761719c-2.6689453-2.9443359-3.2353516-7.2832031-1.4101562-10.7988281
		c1.4873047-2.8671875,7.0322266-11.2324181,8.6669922-13.6884727c1.5673828,2.34375,7.1669922,10.7646446,8.671875,13.6679649
		c0.7158203,1.3642578,1.0917969,2.8955078,1.0869141,4.4296875V77.7908401z"/>
</g>
<rect style="fill:none;" width="96" height="96"/>
</svg>
