<?xml version="1.0" encoding="utf-8"?>
<!-- Generator: Adobe Illustrator 25.2.2, SVG Export Plug-In . SVG Version: 6.00 Build 0)  -->
<svg version="1.1" id="Graphic_Style" xmlns="http://www.w3.org/2000/svg" xmlns:xlink="http://www.w3.org/1999/xlink" x="0px"
	 y="0px" viewBox="0 0 60 60" style="enable-background:new 0 0 60 60;" xml:space="preserve">
<g id="_x23__x23_.Guide_2_" style="display:none;">
	<g id="_x23_.Document_2_" style="display:inline;">
		<rect id="Area_8_" x="0" style="opacity:0.3;fill:#00A0E8;" width="60" height="60"/>
	</g>
	<g id="_x23_.Safe_area_2_" style="display:inline;">
		<rect id="Area_7_" x="3" y="3" style="opacity:0.3;fill:#00A0E8;" width="54" height="54"/>
	</g>
	<g id="_x23_.Icon_area_2_" style="display:inline;opacity:0.7;">
		<rect id="Area_6_" x="3" y="3" style="opacity:0.5;fill:#00A0E8;" width="54" height="54"/>
	</g>
</g>
<circle style="fill:none;stroke:#151310;stroke-width:1.5;stroke-miterlimit:10;" cx="29.9975414" cy="31.2342682" r="9.5200014"/>
<path style="fill:none;stroke:#151310;stroke-width:1.5;stroke-miterlimit:10;" d="M40.2400017,17.8649998
	c-0.5528564-0.0328007-1.0523796-0.3407784-1.3300018-0.8199997l-1.5099983-3
	c-0.2727127-0.4777908-0.7705078-0.7832565-1.3199997-0.8099995H23.9200001
	c-0.5494919,0.0267429-1.047287,0.3322086-1.3199997,0.8099995l-1.5100002,3
	c-0.2776203,0.4792213-0.7771435,0.787199-1.3299999,0.8199997h-8.8900013c-0.5025787,0-0.9099998,0.4074211-0.9099998,0.9099998
	v27.0700016c-0.0000286,0.5042229,0.4058084,0.9145164,0.9099998,0.9199982h38.2600021
	c0.5041924-0.0054817,0.9100304-0.4157753,0.9099998-0.9199982V18.7749996c0-0.5025787-0.4074211-0.9099998-0.9099998-0.9099998
	H40.2400017z"/>
</svg>
